<?xml version="1.0" encoding="UTF-8"?><svg id="Layer_1" xmlns="http://www.w3.org/2000/svg" xmlns:xlink="http://www.w3.org/1999/xlink" viewBox="0 0 1030 1485.06"><defs><style>.cls-1,.cls-2,.cls-3{fill:none;}.cls-2,.cls-4,.cls-5,.cls-6,.cls-7,.cls-8,.cls-9,.cls-10,.cls-11,.cls-12,.cls-13,.cls-14{stroke-linejoin:round;}.cls-2,.cls-4,.cls-5,.cls-6,.cls-7,.cls-9,.cls-10,.cls-11,.cls-12,.cls-13,.cls-14{stroke-width:4.5px;}.cls-2,.cls-4,.cls-5,.cls-6,.cls-7,.cls-9,.cls-10,.cls-11,.cls-13,.cls-14{stroke-linecap:round;}.cls-2,.cls-4,.cls-5,.cls-15,.cls-7,.cls-9,.cls-10,.cls-11,.cls-13,.cls-14,.cls-16{stroke:#000;}.cls-4{fill:#b5b8be;}.cls-5{fill:#ee454d;}.cls-17,.cls-6,.cls-15,.cls-10,.cls-12,.cls-18{fill:#fff;}.cls-17,.cls-8{fill-rule:evenodd;}.cls-3{stroke-width:8px;}.cls-3,.cls-6,.cls-12{stroke:#fff;}.cls-3,.cls-15,.cls-16{stroke-miterlimit:10;}.cls-19,.cls-14{fill:#488ecb;}.cls-15,.cls-16{stroke-width:4.15px;}.cls-20,.cls-9{fill:#ee464e;}.cls-7{fill:#72777d;}.cls-8{fill:#fef9d0;opacity:.7;stroke:#fef9d0;stroke-width:3.77px;}.cls-21{fill:#fbe352;}.cls-11{fill:#488dcb;}.cls-22{clip-path:url(#clippath-1);}.cls-23{clip-path:url(#clippath-3);}.cls-24{clip-path:url(#clippath-2);}.cls-13{fill:#fccb98;}.cls-25{opacity:.33;}.cls-26{fill:#a2dcf2;}.cls-27{clip-path:url(#clippath);}.cls-28{fill:#285ba7;}.cls-29{fill:#a08abb;}</style><clipPath id="clippath"><rect class="cls-1" x="-1491.41" y="-665.98" width="1030" height="611.62" rx="35" ry="35"/></clipPath><clipPath id="clippath-1"><rect class="cls-1" x="-2160.91" y="-1189.32" width="2369.01" height="1658.3"/></clipPath><clipPath id="clippath-2"><path class="cls-1" d="M36.36,0h957.28c20.07,0,36.36,16.29,36.36,36.36v612.77H0V36.36C0,16.29,16.29,0,36.36,0Z"/></clipPath><clipPath id="clippath-3"><path class="cls-1" d="M36.36,0h957.28c20.07,0,36.36,16.29,36.36,36.36v612.77H0V36.36C0,16.29,16.29,0,36.36,0Z"/></clipPath></defs><g class="cls-27"><rect class="cls-29" x="-2160.91" y="-1189.32" width="2369.01" height="1658.3"/><polygon class="cls-26" points="-806.22 -1189.32 -926.53 -977.94 -815.2 -724.47 -868.35 -623.33 -812.88 -575.4 -825.79 -555.53 -1106.75 -128.89 -1046.06 -104.75 -1081.51 12.26 -863.85 263.34 -924.25 468.98 208.1 468.98 208.1 -1189.32 -806.22 -1189.32"/><g class="cls-22"><g class="cls-25"><polygon class="cls-18" points="-75.55 947.72 -976.41 -376.89 55.42 848.46 -75.55 947.72 -75.55 947.72"/><polygon class="cls-18" points="236.59 669.43 -976.41 -376.89 337.4 539.65 236.59 669.43 236.59 669.43"/><polygon class="cls-18" points="466.06 319.83 -976.41 -376.89 529.85 168.38 466.06 319.83 466.06 319.83"/></g></g></g><path class="cls-21" d="M36.36,0h957.28c20.07,0,36.36,16.29,36.36,36.36v1413.7c0,19.32-15.68,35-35,35H35c-19.32,0-35-15.68-35-35V36.36C0,16.29,16.29,0,36.36,0Z"/><path class="cls-21" d="M35,0h960c19.32,0,35,15.68,35,35v614.13H0V35C0,15.68,15.68,0,35,0Z"/><g class="cls-24"><rect class="cls-21" x="-34.41" y="-52.94" width="1072.24" height="765.89"/><path class="cls-8" d="M147.31-52.94L-34.41-23.44V14.14l201.11-53.34L20.74,49.91,443.39-52.94h-97.54L150.49-7.06l125.12-45.88h-128.3ZM502.12-52.94L409.99,1.7l249.83-54.65h-99.11l-9.62,2.06,4.63-2.06h-53.6ZM712.85-52.94L422.96,99.58l240.04-56.97-210.84,90.57,366.54-92.03-167.05,64.28L1037.83,9.33V-27.97l-387.81,93.95L821.95-7.06l-265.99,61.35,238.98-107.24h-82.09ZM432.76,24.95L84.12,121.02l87.16-49.58L-34.41,127.43v23.67l94.45-35.25L-31.71,185.06l308.5-85.74-174.32,100.2,160.56-48.55L26.78,317.28l385.34-120.86-120.42,88.83,436.95-140.48-152.53,85.74,215.61-68.18-414.01,229.32,149.09-36.15-239.69,145.65,378.46-114.66-96.34,77.47,295.89-98.13-270.66,193.16,228.22-68.17-128.45,78.5,343.59-97.22v-31.05l-180.74,53.9,135.33-73.34-261.48,69.21,264.92-191.1-283.27,83.67,110.1-67.14-402.54,121.89,269.51-147.71-153.68,42.35L1000.45,67.3l-275.24,96.07,164-91.93-461.03,144.61,127.3-76.44-404.84,112.59,231.66-154.94-115.83,24.79L432.76,24.95ZM1037.83,74.29l-236.97,158.22,202.73-45.29-100.56,75.96,134.79-40.73v-21.26l-40.72,15.24,40.72-30.13v-41.11l-116.95,36.18,116.95-77.04v-30.06ZM474.41,264.78L76.46,401.13l176.61-98.13L-8.41,381.5l105.51-59.91-131.51,40.22v15.14l30.58-11.98-30.58,22.77v24.19l118.89-36.63-118.12,86.77,357.82-123.96-250.01,168.37,133.03-53.71-241.6,159.06v4.79l147.56-47.13-147.56,96.89v10.47l359.73-111.5-127.3,88.83,261.48-98.13-256.89,129.12,194.96-44.42-130.59,72.17h142.58l263.25-76.3-122.03,76.3h21.78l360.58-97.99-222.49,95.03,327.17-108.9v-44.93l-322.58,84.63,138.77-79.54-541.31,144.62,224.78-118.79-151.38,37.19,306.21-166.31-346.35,114.66,110.1-71.27-394.51,119.82,192.67-115.69-194.96,64.04,270.66-170.44-111.24,34.09,255.75-168.37ZM474.41,264.78"/></g><path class="cls-16" d="M243.84,224.67c-16.31,0-30.46-8.83-30.46-27.86v-5.21c0-1.36,1.02-2.49,2.49-2.49h11.89c1.36,0,2.6,1.13,2.6,2.49v4.08c0,7.59,4.3,13.59,13.47,13.59s13.7-6,13.7-13.59v-49.37c0-1.36,1.13-2.49,2.6-2.49h11.89c1.36,0,2.49,1.13,2.49,2.49v49.82c0,19.25-14.38,28.54-30.69,28.54Z"/><path class="cls-16" d="M335.45,224.67c-23.44,0-42.01-18-42.01-41.22s18.57-41.22,42.01-41.22,42.01,18,42.01,41.22-18.46,41.22-42.01,41.22ZM335.45,157.98c-14.15,0-24.35,11.21-24.35,25.48s10.19,25.48,24.35,25.48,24.35-11.21,24.35-25.48-10.19-25.48-24.35-25.48Z"/><path class="cls-16" d="M399.55,223.09c-1.47,0-2.49-1.13-2.49-2.6v-74.17c0-1.36,1.02-2.49,2.49-2.49h11.89c1.47,0,2.6,1.13,2.6,2.49v74.17c0,1.47-1.13,2.6-2.6,2.6h-11.89Z"/><path class="cls-16" d="M454.58,170.66v49.94c0,1.47-1.13,2.49-2.49,2.49h-12c-1.47,0-2.49-1.02-2.49-2.49v-74.28c0-1.36,1.02-2.49,2.49-2.49h15.51c1.47,0,2.72.45,3.62,2.04l30.46,48.92v-48.46c0-1.36,1.13-2.49,2.49-2.49h11.89c1.36,0,2.6,1.13,2.6,2.49v74.28c0,1.47-1.25,2.49-2.6,2.49h-12.8c-2.6,0-4.19-.68-5.32-2.49l-31.37-49.94Z"/><path class="cls-16" d="M573.02,146.43c0-1.47,1.13-2.6,2.49-2.6h62.73c1.36,0,2.49,1.13,2.49,2.6v10.42c0,1.47-1.13,2.6-2.49,2.6h-22.65v61.03c0,1.47-1.13,2.6-2.6,2.6h-12.34c-1.47,0-2.49-1.13-2.49-2.6v-61.03h-22.65c-1.36,0-2.49-1.13-2.49-2.6v-10.42Z"/><path class="cls-16" d="M729.63,220.48c0,1.47-1.02,2.6-2.49,2.6h-11.89c-1.47,0-2.6-1.13-2.6-2.6v-29.55h-36.8v29.55c0,1.47-1.13,2.6-2.6,2.6h-11.89c-1.47,0-2.49-1.13-2.49-2.6v-74.17c0-1.36,1.02-2.49,2.49-2.49h11.89c1.47,0,2.6,1.13,2.6,2.49v29.44h36.8v-29.44c0-1.36,1.13-2.49,2.6-2.49h11.89c1.47,0,2.49,1.13,2.49,2.49v74.17Z"/><path class="cls-16" d="M812.41,143.82c1.47,0,2.6,1.13,2.6,2.6v10.42c0,1.47-1.13,2.6-2.6,2.6h-42.24v16.31h22.08c1.47,0,2.49,1.13,2.49,2.6v9.96c0,1.36-1.02,2.6-2.49,2.6h-22.08v16.53h43.14c1.36,0,2.6,1.13,2.6,2.6v10.42c0,1.47-1.25,2.6-2.6,2.6h-57.64c-1.47,0-2.49-1.13-2.49-2.6v-74.17c0-1.36,1.02-2.49,2.49-2.49h56.73Z"/><path class="cls-16" d="M210.04,316.29c0-23.21,18.46-41.22,42.01-41.22,17.33,0,32.5,9.06,37.93,24.46.34.91.57,2.15-1.25,2.6l-12.91,3.4c-1.81.45-2.26-.79-2.6-1.58-3.85-7.47-10.76-13.14-21.06-13.14-14.27,0-24.46,11.21-24.46,25.48s10.19,25.48,24.46,25.48c10.3,0,17.21-5.66,21.06-13.14.34-.79.79-2.04,2.6-1.58l12.91,3.4c1.81.45,1.58,1.7,1.25,2.6-5.44,15.4-20.61,24.46-37.93,24.46-23.55,0-42.01-18-42.01-41.22Z"/><path class="cls-16" d="M342.53,357.51c-23.44,0-42.01-18-42.01-41.22s18.57-41.22,42.01-41.22,42.01,18,42.01,41.22-18.46,41.22-42.01,41.22ZM342.53,290.81c-14.15,0-24.35,11.21-24.35,25.48s10.19,25.48,24.35,25.48,24.35-11.21,24.35-25.48-10.19-25.48-24.35-25.48Z"/><path class="cls-16" d="M417.72,303.5v49.94c0,1.47-1.13,2.49-2.49,2.49h-12c-1.47,0-2.49-1.02-2.49-2.49v-74.28c0-1.36,1.02-2.49,2.49-2.49h15.51c1.47,0,2.72.45,3.62,2.04l30.46,48.92v-48.46c0-1.36,1.13-2.49,2.49-2.49h11.89c1.36,0,2.6,1.13,2.6,2.49v74.28c0,1.47-1.25,2.49-2.6,2.49h-12.8c-2.6,0-4.19-.68-5.32-2.49l-31.37-49.94Z"/><path class="cls-16" d="M484.53,279.26c0-1.47,1.13-2.6,2.49-2.6h62.73c1.36,0,2.49,1.13,2.49,2.6v10.42c0,1.47-1.13,2.6-2.49,2.6h-22.65v61.03c0,1.47-1.13,2.6-2.6,2.6h-12.34c-1.47,0-2.49-1.13-2.49-2.6v-61.03h-22.65c-1.36,0-2.49-1.13-2.49-2.6v-10.42Z"/><path class="cls-16" d="M626.19,276.66c1.47,0,2.6,1.13,2.6,2.6v10.42c0,1.47-1.13,2.6-2.6,2.6h-42.24v16.31h22.08c1.47,0,2.49,1.13,2.49,2.6v9.96c0,1.36-1.02,2.6-2.49,2.6h-22.08v16.53h43.14c1.36,0,2.6,1.13,2.6,2.6v10.42c0,1.47-1.25,2.6-2.6,2.6h-57.64c-1.47,0-2.49-1.13-2.49-2.6v-74.17c0-1.36,1.02-2.49,2.49-2.49h56.73Z"/><path class="cls-16" d="M700.93,284.47c3.17,2.83,1.93,4.98.68,6.23l-5.55,5.78c-1.7,1.7-3.96,1.92-6.45.11-4.87-3.74-10.19-6.57-16.53-6.57-6.68,0-12.12,2.94-12.12,8.15,0,3.17,2.04,5.89,8.04,7.47l15.17,3.74c12.68,3.28,21.74,9.85,21.74,22.99,0,12.34-10.42,25.14-32.16,25.14-15.4,0-25.82-5.77-31.14-11.55-2.04-2.04-2.6-4.98-.23-6.91l7.25-5.66c2.26-1.7,4.08-.79,5.77.91,4.3,4.19,10.3,8.15,19.02,8.15s12.91-4.19,12.91-8.38c0-4.98-3.96-7.47-11.32-9.29l-13.7-3.4c-12.12-2.94-19.59-10.53-19.59-21.97,0-14.27,12.91-24.35,30.69-24.35,12.91,0,22.65,4.76,27.52,9.4Z"/><path class="cls-16" d="M714.29,279.26c0-1.47,1.13-2.6,2.49-2.6h62.73c1.36,0,2.49,1.13,2.49,2.6v10.42c0,1.47-1.13,2.6-2.49,2.6h-22.65v61.03c0,1.47-1.13,2.6-2.6,2.6h-12.34c-1.47,0-2.49-1.13-2.49-2.6v-61.03h-22.65c-1.36,0-2.49-1.13-2.49-2.6v-10.42Z"/><path class="cls-16" d="M795.48,346.86c0-5.89,4.87-10.64,10.64-10.64s10.76,4.76,10.76,10.64-4.87,10.64-10.76,10.64-10.64-4.76-10.64-10.64ZM814.62,326.26c0,1.36-1.13,2.6-2.6,2.6h-11.66c-1.47,0-2.6-1.25-2.6-2.6l-.23-47.11c0-1.36,1.25-2.49,2.72-2.49h11.89c1.47,0,2.6,1.13,2.6,2.49l-.11,47.11Z"/><path class="cls-15" d="M243.84,208.66c-16.31,0-30.46-8.83-30.46-27.86v-5.21c0-1.36,1.02-2.49,2.49-2.49h11.89c1.36,0,2.6,1.13,2.6,2.49v4.08c0,7.59,4.3,13.59,13.47,13.59s13.7-6,13.7-13.59v-49.37c0-1.36,1.13-2.49,2.6-2.49h11.89c1.36,0,2.49,1.13,2.49,2.49v49.82c0,19.25-14.38,28.54-30.69,28.54Z"/><path class="cls-15" d="M335.45,208.66c-23.44,0-42.01-18-42.01-41.22s18.57-41.22,42.01-41.22,42.01,18,42.01,41.22-18.46,41.22-42.01,41.22ZM335.45,141.96c-14.15,0-24.35,11.21-24.35,25.48s10.19,25.48,24.35,25.48,24.35-11.21,24.35-25.48-10.19-25.48-24.35-25.48Z"/><path class="cls-15" d="M399.55,207.07c-1.47,0-2.49-1.13-2.49-2.6v-74.17c0-1.36,1.02-2.49,2.49-2.49h11.89c1.47,0,2.6,1.13,2.6,2.49v74.17c0,1.47-1.13,2.6-2.6,2.6h-11.89Z"/><path class="cls-15" d="M454.58,154.64v49.94c0,1.47-1.13,2.49-2.49,2.49h-12c-1.47,0-2.49-1.02-2.49-2.49v-74.28c0-1.36,1.02-2.49,2.49-2.49h15.51c1.47,0,2.72.45,3.62,2.04l30.46,48.92v-48.46c0-1.36,1.13-2.49,2.49-2.49h11.89c1.36,0,2.6,1.13,2.6,2.49v74.28c0,1.47-1.25,2.49-2.6,2.49h-12.8c-2.6,0-4.19-.68-5.32-2.49l-31.37-49.94Z"/><path class="cls-15" d="M573.02,130.41c0-1.47,1.13-2.6,2.49-2.6h62.73c1.36,0,2.49,1.13,2.49,2.6v10.42c0,1.47-1.13,2.6-2.49,2.6h-22.65v61.03c0,1.47-1.13,2.6-2.6,2.6h-12.34c-1.47,0-2.49-1.13-2.49-2.6v-61.03h-22.65c-1.36,0-2.49-1.13-2.49-2.6v-10.42Z"/><path class="cls-15" d="M729.63,204.47c0,1.47-1.02,2.6-2.49,2.6h-11.89c-1.47,0-2.6-1.13-2.6-2.6v-29.55h-36.8v29.55c0,1.47-1.13,2.6-2.6,2.6h-11.89c-1.47,0-2.49-1.13-2.49-2.6v-74.17c0-1.36,1.02-2.49,2.49-2.49h11.89c1.47,0,2.6,1.13,2.6,2.49v29.44h36.8v-29.44c0-1.36,1.13-2.49,2.6-2.49h11.89c1.47,0,2.49,1.13,2.49,2.49v74.17Z"/><path class="cls-15" d="M812.41,127.81c1.47,0,2.6,1.13,2.6,2.6v10.42c0,1.47-1.13,2.6-2.6,2.6h-42.24v16.31h22.08c1.47,0,2.49,1.13,2.49,2.6v9.96c0,1.36-1.02,2.6-2.49,2.6h-22.08v16.53h43.14c1.36,0,2.6,1.13,2.6,2.6v10.42c0,1.47-1.25,2.6-2.6,2.6h-57.64c-1.47,0-2.49-1.13-2.49-2.6v-74.17c0-1.36,1.02-2.49,2.49-2.49h56.73Z"/><path class="cls-15" d="M210.04,300.28c0-23.21,18.46-41.22,42.01-41.22,17.33,0,32.5,9.06,37.93,24.46.34.91.57,2.15-1.25,2.6l-12.91,3.4c-1.81.45-2.26-.79-2.6-1.58-3.85-7.47-10.76-13.14-21.06-13.14-14.27,0-24.46,11.21-24.46,25.48s10.19,25.48,24.46,25.48c10.3,0,17.21-5.66,21.06-13.14.34-.79.79-2.04,2.6-1.58l12.91,3.4c1.81.45,1.58,1.7,1.25,2.6-5.44,15.4-20.61,24.46-37.93,24.46-23.55,0-42.01-18-42.01-41.22Z"/><path class="cls-15" d="M342.53,341.49c-23.44,0-42.01-18-42.01-41.22s18.57-41.22,42.01-41.22,42.01,18,42.01,41.22-18.46,41.22-42.01,41.22ZM342.53,274.8c-14.15,0-24.35,11.21-24.35,25.48s10.19,25.48,24.35,25.48,24.35-11.21,24.35-25.48-10.19-25.48-24.35-25.48Z"/><path class="cls-15" d="M417.72,287.48v49.94c0,1.47-1.13,2.49-2.49,2.49h-12c-1.47,0-2.49-1.02-2.49-2.49v-74.28c0-1.36,1.02-2.49,2.49-2.49h15.51c1.47,0,2.72.45,3.62,2.04l30.46,48.92v-48.46c0-1.36,1.13-2.49,2.49-2.49h11.89c1.36,0,2.6,1.13,2.6,2.49v74.28c0,1.47-1.25,2.49-2.6,2.49h-12.8c-2.6,0-4.19-.68-5.32-2.49l-31.37-49.94Z"/><path class="cls-15" d="M484.53,263.25c0-1.47,1.13-2.6,2.49-2.6h62.73c1.36,0,2.49,1.13,2.49,2.6v10.42c0,1.47-1.13,2.6-2.49,2.6h-22.65v61.03c0,1.47-1.13,2.6-2.6,2.6h-12.34c-1.47,0-2.49-1.13-2.49-2.6v-61.03h-22.65c-1.36,0-2.49-1.13-2.49-2.6v-10.42Z"/><path class="cls-15" d="M626.19,260.64c1.47,0,2.6,1.13,2.6,2.6v10.42c0,1.47-1.13,2.6-2.6,2.6h-42.24v16.31h22.08c1.47,0,2.49,1.13,2.49,2.6v9.96c0,1.36-1.02,2.6-2.49,2.6h-22.08v16.53h43.14c1.36,0,2.6,1.13,2.6,2.6v10.42c0,1.47-1.25,2.6-2.6,2.6h-57.64c-1.47,0-2.49-1.13-2.49-2.6v-74.17c0-1.36,1.02-2.49,2.49-2.49h56.73Z"/><path class="cls-15" d="M700.93,268.46c3.17,2.83,1.93,4.98.68,6.23l-5.55,5.78c-1.7,1.7-3.96,1.92-6.45.11-4.87-3.74-10.19-6.57-16.53-6.57-6.68,0-12.12,2.94-12.12,8.15,0,3.17,2.04,5.89,8.04,7.47l15.17,3.74c12.68,3.28,21.74,9.85,21.74,22.99,0,12.34-10.42,25.14-32.16,25.14-15.4,0-25.82-5.77-31.14-11.55-2.04-2.04-2.6-4.98-.23-6.91l7.25-5.66c2.26-1.7,4.08-.79,5.77.91,4.3,4.19,10.3,8.15,19.02,8.15s12.91-4.19,12.91-8.38c0-4.98-3.96-7.47-11.32-9.29l-13.7-3.4c-12.12-2.94-19.59-10.53-19.59-21.97,0-14.27,12.91-24.35,30.69-24.35,12.91,0,22.65,4.76,27.52,9.4Z"/><path class="cls-15" d="M714.29,263.25c0-1.47,1.13-2.6,2.49-2.6h62.73c1.36,0,2.49,1.13,2.49,2.6v10.42c0,1.47-1.13,2.6-2.49,2.6h-22.65v61.03c0,1.47-1.13,2.6-2.6,2.6h-12.34c-1.47,0-2.49-1.13-2.49-2.6v-61.03h-22.65c-1.36,0-2.49-1.13-2.49-2.6v-10.42Z"/><path class="cls-15" d="M795.48,330.85c0-5.89,4.87-10.64,10.64-10.64s10.76,4.76,10.76,10.64-4.87,10.64-10.76,10.64-10.64-4.76-10.64-10.64ZM814.62,310.24c0,1.36-1.13,2.6-2.6,2.6h-11.66c-1.47,0-2.6-1.25-2.6-2.6l-.23-47.11c0-1.36,1.25-2.49,2.72-2.49h11.89c1.47,0,2.6,1.13,2.6,2.49l-.11,47.11Z"/><g class="cls-23"><path class="cls-10" d="M576.41,361.32l9.29-20.29c1.81-3.66,5.54-5.97,9.62-5.97h19.85s7.25.69,7.25,7.25c0,6.56-7.25,6.56-7.25,6.56-.93,0-1.65.8-1.52,1.72.43,3.12.33,10.74-7.33,10.74h-11.73c-.55,0-1.06.29-1.33.77l-7.84,13.49"/><line class="cls-2" x1="616.3" y1="348.86" x2="597.33" y2="348.86"/><path class="cls-10" d="M454.36,361.32l-9.29-20.29c-1.81-3.66-5.54-5.97-9.62-5.97h-19.85s-7.25.69-7.25,7.25c0,6.56,7.25,6.56,7.25,6.56.93,0,1.65.8,1.52,1.72-.43,3.12-.33,10.74,7.33,10.74h11.73c.55,0,1.06.29,1.33.77l7.84,13.49"/><line class="cls-2" x1="414.47" y1="348.86" x2="433.44" y2="348.86"/><path class="cls-11" d="M618.13,595.62v529.1s19.62.74,29.8,18.46c4.43,7.7,4.85,17.72,4.85,33.65h-112.19v-312.87h-51.16v312.87h-112.19c0-15.93.42-25.95,4.85-33.65,10.23-17.72,29.8-18.46,29.8-18.46v-554"/><line class="cls-2" x1="470.96" y1="863.94" x2="559.09" y2="863.94"/><polygon class="cls-19" points="445.48 590.81 395.84 560.68 422.94 514.47 451.72 481.94 466.71 454.89 513.61 414.85 557.65 429.9 573.18 451.7 566.33 474.5 606.81 523.71 638.23 570.72 622.32 588.76 597.33 609.98 529.74 651.07 450.14 633.52 445.48 590.81"/><path class="cls-14" d="M618.13,595.62l52.65,37.9h85.76s13.42-15.52-21.05-49.99c-34.46-34.46-126.28-98.02-143.64-106.29-17.36-8.27-34.2-11.58-34.2-11.58"/><path class="cls-9" d="M407.04,1011.06h87.07c3.31,0,6,2.69,6,6v63.81c0,6.89-5.6,12.49-12.49,12.49h-74.09c-6.89,0-12.49-5.6-12.49-12.49v-63.81c0-3.31,2.69-6,6-6Z"/><path class="cls-9" d="M535.92,1011.06h87.07c3.31,0,6,2.69,6,6v63.81c0,6.89-5.6,12.49-12.49,12.49h-74.09c-6.89,0-12.49-5.6-12.49-12.49v-63.81c0-3.31,2.69-6,6-6Z"/><rect class="cls-7" x="411.9" y="757.9" width="206.23" height="39.16"/><path class="cls-11" d="M556.2,474.31c21.66-13.63,36.05-37.76,36.05-65.24,0-42.55-34.49-77.04-77.04-77.04s-77.04,34.49-77.04,77.04c0,27.61,14.53,51.83,36.35,65.43"/><path class="cls-13" d="M515.39,480.44c15.26,0,47.07-10.42,44.47-46.87,0,0-21.73,2.3-40.83-9.58-2.21-1.38-5.07-1.38-7.28,0-19.1,11.89-40.83,9.58-40.83,9.58-2.61,36.45,29.21,46.87,44.47,46.87Z"/><path class="cls-13" d="M507.74,399.74c0,1.23.17,4.04-.45,5.65-2.46,6.35-10.54,8.66-16.31,8.66,0,0-19.17.08-19.17-17.02,0-18.23,29.17-13.35,35.13-.79.53,1.11.79,2.27.79,3.49Z"/><path class="cls-13" d="M523.04,399.74c0,1.23-.17,4.04.45,5.65,2.46,6.35,10.54,8.66,16.31,8.66,0,0,19.17.08,19.17-17.02,0-18.23-29.17-13.35-35.13-.79-.53,1.11-.79,2.27-.79,3.49Z"/><path class="cls-14" d="M411.92,570.72s-89.23,60.59-121.67,20.64c-15.6-19.21-2.83-42.14-.4-48.73,2.61-7.09,58.99-125.44,58.99-125.44l73.43,35.96-16.53,38.37,57.96-25.14"/><path class="cls-17" d="M537.87,350.49l-8.52,25.14c-.26.81-.77,1.25-1.63,1.25h-5.34c-.85,0-1.39-.36-1.67-1.25l-5.5-17.34-5.46,17.34c-.18.73-.85,1.25-1.59,1.25h-5.54c-.77,0-1.25-.4-1.53-1.25l-8.5-25.14c-.32-1.01.16-1.65,1.19-1.65h4.94c.95,0,1.33.46,1.53,1.13l5.32,17.75,5.64-17.71c.28-.89.81-1.17,1.57-1.17h5.12c.77,0,1.29.28,1.57,1.17l5.62,17.71,5.3-17.75c.18-.68.58-1.13,1.53-1.13h4.77c1.01,0,1.49.64,1.19,1.65Z"/><path d="M490.81,407.82c4.22,0,7.91-3.69,7.91-7.91s-3.69-7.91-7.91-7.91-7.91,3.69-7.91,7.91,3.69,7.91,7.91,7.91Z"/><line class="cls-2" x1="368.8" y1="544.91" x2="382.61" y2="515.74"/><path d="M539.97,407.82c-4.22,0-7.91-3.69-7.91-7.91,0-4.22,3.69-7.91,7.91-7.91,4.22,0,7.91,3.69,7.91,7.91s-3.69,7.91-7.91,7.91Z"/><polyline class="cls-20" points="434.2 420.38 434.72 403.35 457.65 373.65 394.57 363.5 368.57 382.86 364.95 409.44 434.2 420.38"/><path class="cls-9" d="M365.04,385.89c-4.39,7.69-17.81,33.76-17.81,33.76l-18.02,37.57,76.53,34.3,12.23-38.26,16.23-32.88"/><path class="cls-5" d="M408.38,376.44l25.41-30.11s8.16-9.1,15.06-3.27c6.9,5.83-.82,14.41-.82,14.41l-15.6,18.98"/><path class="cls-5" d="M434.72,403.35l33.4-41.17s7.72-8.58.82-14.41c-6.9-5.83-15.06,3.27-15.06,3.27l-25.41,30.11"/><path class="cls-5" d="M421.49,415.47h-11.93s-8.84-.08-8.84-8,8.77-7.92,8.77-7.92h13.45s12.86-.32,12.86,12.86c0,3.53-1.32,7.37-3.25,11.1"/><path class="cls-5" d="M386.71,381.17l25.41-30.11s8.16-9.1,15.06-3.27c6.9,5.83-.82,14.41-.82,14.41l-15.6,18.98"/><path class="cls-5" d="M389.09,385.89l15.6-18.98s7.72-8.58.82-14.41c-6.9-5.83-15.06,3.27-15.06,3.27l-21.42,25.39s-2.84,2.55-5.04,6.61"/><path class="cls-9" d="M337.55,414.85l27.17,12.72-.41,22.25,16.09-14.92,42.54,19.91-28.09,60.06c-1.77,3.79-6.29,5.43-10.08,3.65l-71.64-33.53c-3.79-1.78-5.43-6.29-3.66-10.09l28.09-60.06Z"/><path class="cls-9" d="M652.78,1176.83h-112.19v-83.65c.58.11,1.16.16,1.79.16h74.1c.58,0,1.11-.05,1.64-.11v31.49s19.62.74,29.8,18.46c4.43,7.7,4.85,17.72,4.85,33.65Z"/><path class="cls-9" d="M489.43,1093.18v83.65h-112.19c0-15.93.42-25.95,4.85-33.65,10.23-17.72,29.8-18.46,29.8-18.46v-31.49c.53.05,1.05.11,1.64.11h74.1c.63,0,1.21-.05,1.79-.16Z"/><path class="cls-2" d="M618.14,1124.74c-6.55,0-23.49-1.23-35.95,20.04"/><path class="cls-2" d="M411.91,1124.74c6.55,0,23.49-1.23,35.95,20.04"/><polygon class="cls-12" points="541.31 576.08 547.58 612.16 515.2 595.07 482.81 612.16 489.09 576.08 462.77 550.56 499.06 545.39 515.2 512.47 531.34 545.39 567.63 550.56 541.31 576.08"/><path class="cls-5" d="M455.73,666.49v91.4h-43.83v-59.6s13.45-19.04,43.83-31.8Z"/><path class="cls-5" d="M574.3,666.49v91.4s43.83,0,43.83,0v-59.6s-13.45-19.04-43.83-31.8Z"/><path class="cls-10" d="M574.3,666.49v91.4h-118.57v-91.4c10.65-4.48,23.47-8.23,38.45-10.07.42-.05.9-.11,1.32-.16,6.12-.74,12.61-1.11,19.52-1.11s13.4.37,19.51,1.11c.42.05.9.11,1.32.16,14.98,1.85,27.8,5.59,38.45,10.07Z"/><path class="cls-5" d="M535.85,656.41v101.48h-41.67v-101.48c6.54-.84,13.45-1.27,20.83-1.27s14.29.42,20.83,1.27Z"/><path class="cls-4" d="M482.02,747.76v59.44h66.35v-59.44h-66.35ZM531.81,791.8h-33.23v-28.64h33.23v28.64Z"/><circle class="cls-9" cx="695.54" cy="728.66" r="131.06"/><circle class="cls-18" cx="695.54" cy="728.66" r="103.5"/><circle class="cls-20" cx="695.54" cy="728.66" r="76.83"/><circle class="cls-28" cx="695.54" cy="728.66" r="49.49"/><path class="cls-6" d="M710.27,749.51c.69,1.04,1.1,2.27,1.1,3.61,0,3.59-2.89,6.5-6.5,6.5-3.58,0-6.5-2.92-6.5-6.5v-.11c-.54.04-1.1.06-1.66.06h-8.16s0,.02,0,.04c0,3.59-2.89,6.5-6.5,6.5-3.58,0-6.5-2.92-6.5-6.5,0-.8.15-1.58.43-2.27-9.01-3.87-13.52-11.71-13.5-14.08,3.93-.02,6.54-3.18,6.54-6.5v-4.88c0-15.29,12.39-27.69,27.69-27.69,15.25,0,27.69,12.44,27.69,27.69,0,10.37-5.7,19.39-14.12,24.12Z"/><path class="cls-2" d="M523.89,446.85s-2.65,4.84-8.5,4.84-8.5-4.84-8.5-4.84"/></g><line class="cls-3" x1="1030" y1="649.13" y2="649.13"/></svg>